<svg width="96" height="96" viewBox="0 0 96 96" fill="none" xmlns="http://www.w3.org/2000/svg">
    <path d="M48 96C57.4935 96 66.7738 93.1848 74.6674 87.9105C82.5609 82.6362 88.7132 75.1397 92.3462 66.3688C95.9792 57.598 96.9298 47.9468 95.0777 38.6357C93.2256 29.3246 88.654 20.7718 81.9411 14.0589C75.2282 7.34597 66.6754 2.77442 57.3643 0.922328C48.0532 -0.929762 38.402 0.0207979 29.6312 3.6538C20.8603 7.28681 13.3638 13.4391 8.08946 21.3326C2.81515 29.2262 0 38.5065 0 48C0 60.7304 5.05713 72.9394 14.0589 81.9411C23.0606 90.9429 35.2696 96 48 96Z" fill="#0052FF"/>
    <path fill-rule="evenodd" clip-rule="evenodd" d="M47.887 81.8029C66.5557 81.8029 81.6898 66.6689 81.6898 48.0001C81.6898 29.3313 66.5557 14.1973 47.887 14.1973C30.1762 14.1973 15.6468 27.8178 14.2021 45.1554H64.3631V50.7841H14.1971C15.6129 68.1506 30.1556 81.8029 47.887 81.8029Z" fill="white"/>
</svg>
