<svg fill="none" viewBox="0 0 100 100" xmlns="http://www.w3.org/2000/svg"><path fill="#627EEA" d="M50 100c27.615 0 50-22.385 50-50S77.615 0 50 0 0 22.385 0 50s22.385 50 50 50Z"/><path fill="#fff" fill-opacity=".602" d="M49.994 12.5v26.57l21.867 10.034L49.993 12.5Z"/><path fill="#fff" d="M49.994 12.5 28.125 49.104l21.87-10.035V12.5Z"/><path fill="#fff" fill-opacity=".602" d="M49.994 66.322v18.053l21.881-31.09-21.88 13.037Z"/><path fill="#fff" d="M49.994 84.375V66.319L28.125 53.286l21.87 31.089Z"/><path fill="#fff" fill-opacity=".2" d="m49.994 62.143 21.867-13.039-21.867-10.029v23.068Z"/><path fill="#fff" fill-opacity=".602" d="m28.125 49.104 21.87 13.04v-23.07l-21.87 10.029ZM49.994 12.5v26.57l21.867 10.034L49.993 12.5Z"/><path fill="#fff" d="M49.994 12.5 28.125 49.104l21.87-10.035V12.5Z"/><path fill="#fff" fill-opacity=".602" d="M49.994 66.322v18.053l21.881-31.09-21.88 13.037Z"/><path fill="#fff" d="M49.994 84.375V66.319L28.125 53.286l21.87 31.089Z"/><path fill="#fff" fill-opacity=".2" d="m49.994 62.143 21.867-13.039-21.867-10.029v23.068Z"/><path fill="#fff" fill-opacity=".602" d="m28.125 49.104 21.87 13.04v-23.07l-21.87 10.029Z"/></svg>