<svg fill="none" viewBox="0 0 100 100" xmlns="http://www.w3.org/2000/svg"><path fill="#6433B9" d="M50 100c27.615 0 50-22.385 50-50S77.615 0 50 0 0 22.385 0 50s22.385 50 50 50Z"/><path fill="#fff" d="M65.906 38.25c-1.156-.688-2.656-.688-3.906 0l-9 5.219-6.125 3.406-8.969 5.219c-1.156.687-2.656.687-3.906 0l-7.188-4.063c-1.156-.687-1.937-1.937-1.937-3.312v-8.032c0-1.374.688-2.593 1.969-3.28l7.031-3.97c1.156-.687 2.656-.687 3.906 0l7.032 3.97c1.156.656 1.968 1.906 1.968 3.28v5.22l6.125-3.532v-5.219c0-1.375-.687-2.593-1.968-3.281l-13.032-7.5c-1.156-.688-2.656-.688-3.906 0l-13.25 7.5c-1.313.688-2 1.938-2 3.281V48.25c0 1.375.688 2.594 1.969 3.281l13.25 7.5c1.156.688 2.656.688 3.906 0l9-5.125L53 50.375l9-5.094c1.156-.687 2.656-.687 3.906 0l7.031 3.969c1.157.688 1.97 1.938 1.97 3.281v8.063c0 1.375-.688 2.593-1.97 3.281l-7.03 4.094c-1.157.687-2.657.687-3.907 0L54.969 64C53.812 63.312 53 62.062 53 60.719V55.5l-6.125 3.531v5.219c0 1.375.688 2.594 1.969 3.281l13.25 7.5c1.156.688 2.656.688 3.906 0l13.25-7.5c1.156-.687 1.969-1.937 1.969-3.281V49.156c0-1.375-.688-2.593-1.969-3.281L65.906 38.25Z"/></svg>